HIERARCHY
ROOT SpineBase
{
  OFFSET 0.000000 0.000000 0.000000
  CHANNELS 6 Xposition Yposition Zposition Zrotation Xrotation Yrotation
  JOINT SpineMid
  {
    OFFSET 0.000000 26.462572 0.000000
    CHANNELS 3 Zrotation Xrotation Yrotation
    JOINT SpineShoulder
    {
      OFFSET -0.279548 19.898173 -0.664323
      CHANNELS 3 Zrotation Xrotation Yrotation
      JOINT Neck
      {
        OFFSET -0.110376 6.669118 -0.543304
        CHANNELS 3 Zrotation Xrotation Yrotation
        JOINT Head
        {
          OFFSET -2.376682 11.310648 2.360342
          CHANNELS 3 Zrotation Xrotation Yrotation
          End Site
          {
            OFFSET 0 0 0
          }
        }
      }
      JOINT ShoulderLeft
      {
        OFFSET -13.736060 -2.871257 2.366615
        CHANNELS 3 Zrotation Xrotation Yrotation
        JOINT ElbowLeft
        {
          OFFSET -1.063446 -23.222326 0.937784
          CHANNELS 3 Zrotation Xrotation Yrotation
          JOINT WristLeft
          {
            OFFSET -2.159844 -19.984324 -5.249201
            CHANNELS 3 Zrotation Xrotation Yrotation
            JOINT HandLeft
            {
              OFFSET -0.080432 -7.392441 -0.708200
              CHANNELS 3 Zrotation Xrotation Yrotation
              JOINT HandTipLeft
              {
                OFFSET -0.962546 -5.669738 -2.004494
                CHANNELS 3 Zrotation Xrotation Yrotation
                End Site
                {
                  OFFSET 0 0 0
                }
              }
              JOINT ThumbLeft
              {
                OFFSET -3.095121 0.788976 -2.292784
                CHANNELS 3 Zrotation Xrotation Yrotation
                End Site
                {
                  OFFSET 0 0 0
                }
              }
            }
          }
        }
      }
      JOINT ShoulderRight
      {
        OFFSET 11.870346 -1.432840 -6.380046
        CHANNELS 3 Zrotation Xrotation Yrotation
        JOINT ElbowRight
        {
          OFFSET 1.973087 -23.772518 -3.395739
          CHANNELS 3 Zrotation Xrotation Yrotation
          JOINT WristRight
          {
            OFFSET 0.287843 -17.439067 -4.256921
            CHANNELS 3 Zrotation Xrotation Yrotation
            JOINT HandRight
            {
              OFFSET -1.143547 -7.300163 -0.446866
              CHANNELS 3 Zrotation Xrotation Yrotation
              JOINT HandTipRight
              {
                OFFSET -0.218585 -5.499939 -1.409263
                CHANNELS 3 Zrotation Xrotation Yrotation
                End Site
                {
                  OFFSET 0 0 0
                }
              }
              JOINT ThumbRight
              {
                OFFSET -1.583910 0.897723 2.025508
                CHANNELS 3 Zrotation Xrotation Yrotation
                End Site
                {
                  OFFSET 0 0 0
                }
              }
            }
          }
        }
      }
    }
  }
  JOINT HipLeft
  {
    OFFSET -5.711258 0.482813 -1.569827
    CHANNELS 3 Zrotation Xrotation Yrotation
    JOINT KneeLeft
    {
      OFFSET 1.498117 -31.151153 -3.042802
      CHANNELS 3 Zrotation Xrotation Yrotation
      JOINT AnkleLeft
      {
        OFFSET 3.596924 -33.239960 -0.366340
        CHANNELS 3 Zrotation Xrotation Yrotation
        JOINT FootLeft
        {
          OFFSET -1.351985 -2.295920 -9.585217
          CHANNELS 3 Zrotation Xrotation Yrotation
          End Site
          {
            OFFSET 0 0 0
          }
        }
      }
    }
  }
  JOINT HipRight
  {
    OFFSET 5.228750 1.820127 -4.348010
    CHANNELS 3 Zrotation Xrotation Yrotation
    JOINT KneeRight
    {
      OFFSET 3.771384 -24.292325 -11.583143
      CHANNELS 3 Zrotation Xrotation Yrotation
      JOINT AnkleRight
      {
        OFFSET 1.857458 -41.160612 5.420730
        CHANNELS 3 Zrotation Xrotation Yrotation
        JOINT FootRight
        {
          OFFSET -3.572353 -4.899062 -3.133264
          CHANNELS 3 Zrotation Xrotation Yrotation
          End Site
          {
            OFFSET 0 0 0
          }
        }
      }
    }
  }
}
MOTION
Frames: 15
Frame Time: 0.033333
31.537566 71.572410 367.944714 -0.000000 0.000000 14.248890 0.000000 0.000000 -14.248890 -0.000000 0.000000 0.000000 -0.000000 0.000000 0.000000 0.000000 0.000000 0.000000 -0.000000 0.000000 0.000000 -0.000000 0.000000 0.000000 -0.000000 0.000000 0.000000 -0.000000 0.000000 0.000000 0.000000 0.000000 0.000000 0.000000 0.000000 0.000000 -0.000000 0.000000 0.000000 -0.000000 0.000000 0.000000 -0.000000 0.000000 0.000000 -0.000000 0.000000 0.000000 0.000000 0.000000 0.000000 0.000000 0.000000 0.000000 0.000000 0.000000 -14.248890 -0.000000 0.000000 0.000000 -0.000000 0.000000 0.000000 0.000000 0.000000 0.000000 0.000000 0.000000 -14.248890 -0.000000 0.000000 0.000000 -0.000000 0.000000 0.000000 0.000000 0.000000 0.000000
31.326947 71.266193 368.101885 -0.102322 0.029078 14.170885 0.092090 -0.053243 -14.170816 -0.000000 0.000000 0.000000 -0.000000 0.000000 0.000000 0.000000 0.000000 0.000000 -0.000000 0.000000 0.000000 -0.679524 -0.840246 0.264660 3.004717 1.740616 -0.558592 -1.570345 -3.047172 0.341163 0.000000 0.000000 0.000000 0.000000 0.000000 0.000000 2.018978 -0.612863 -0.328265 0.590974 5.487169 -0.346367 -4.491633 12.284471 -2.005933 0.413972 -5.036102 2.465035 0.000000 0.000000 0.000000 0.000000 0.000000 0.000000 0.092090 -0.053243 -14.170816 -0.000000 0.000000 0.000000 0.723582 -5.453948 0.285428 0.000000 0.000000 0.000000 -0.738341 -3.171967 -14.682450 -0.101971 4.218594 0.526153 -0.532209 7.810074 -5.703848 0.000000 0.000000 0.000000
31.152059 71.074536 368.212234 -0.185680 0.139944 14.159976 0.145804 -0.181114 -14.159519 -0.389904 0.884464 -0.014126 0.390168 -0.884347 0.020146 0.000000 0.000000 0.000000 0.390168 -0.884347 0.020146 -1.320711 -1.524995 0.495281 5.445162 3.410225 -1.119454 -2.538504 -5.858724 0.579091 0.000000 0.000000 0.000000 0.000000 0.000000 0.000000 4.704328 -1.536803 -0.557982 -0.668707 9.760028 -0.384392 -7.984227 23.014432 -3.820299 1.383867 -11.211617 4.761396 0.000000 0.000000 0.000000 0.000000 0.000000 0.000000 1.398497 0.411375 -14.224085 -1.068816 -0.882033 0.053821 1.362211 -10.094011 0.628513 0.000000 0.000000 0.000000 -1.385129 -5.832191 -15.125019 -0.214239 7.890042 0.978736 -0.385885 13.492767 -10.084941 0.000000 0.000000 0.000000
31.012902 70.997439 368.275760 -0.251177 0.332022 14.212170 -0.209361 0.637639 -14.217840 0.058995 0.448229 -0.012281 0.552209 -1.346744 0.029156 0.000000 0.000000 0.000000 0.552209 -1.346744 0.029156 -1.927089 -2.056748 0.695952 7.334271 5.029164 -1.639710 -2.937495 -8.379740 0.717904 0.000000 0.000000 0.000000 0.000000 0.000000 0.000000 7.475929 -1.406190 -0.795381 -3.410694 13.424864 -0.084252 -11.123696 30.802270 -5.160703 2.808834 -16.335807 6.805884 0.000000 0.000000 0.000000 0.000000 0.000000 0.000000 1.799409 0.435850 -14.289402 -1.384770 -1.197998 0.063276 1.813341 -13.262061 0.958343 0.000000 0.000000 0.000000 -1.968223 -8.090994 -15.576567 -0.315913 11.095461 1.369061 -0.007065 17.284053 -13.317273 0.000000 0.000000 0.000000
30.909475 71.034903 368.292463 -0.299579 0.606187 14.325946 -0.275415 0.743025 -14.330634 0.058305 0.566481 -0.014762 0.372814 -0.998204 0.269390 0.000000 0.000000 0.000000 0.692878 -1.824104 0.037233 -2.501779 -2.437422 0.870267 8.680500 6.618776 -2.084035 -2.795338 -10.571402 0.762849 0.000000 0.000000 0.000000 0.000000 0.000000 0.000000 10.580009 -0.586160 -1.058202 -7.645643 16.932470 0.571491 -14.267296 35.517903 -6.127252 4.480001 -19.823106 8.634436 0.000000 0.000000 0.000000 0.000000 0.000000 0.000000 1.991266 0.332789 -14.400917 -1.545838 -1.423177 0.063475 1.981632 -14.478984 1.196193 0.000000 0.000000 0.000000 -2.508982 -10.032076 -16.040745 -0.390408 13.880169 1.702021 0.333572 19.570136 -15.565518 0.000000 0.000000 0.000000
30.841778 71.186926 368.262344 -0.331338 0.964752 14.502034 -0.339734 0.795033 -14.504872 0.048167 0.668668 -0.016805 0.295198 -1.232831 0.363603 0.000000 0.000000 0.000000 0.812523 -2.317620 0.044189 -3.047532 -2.668214 1.021391 9.485545 8.198934 -2.422429 -2.131714 -12.410630 0.721770 0.000000 0.000000 0.000000 0.000000 0.000000 0.000000 14.052238 0.997800 -1.408803 -13.685204 20.793625 1.654937 -17.438709 37.226817 -7.146104 6.101903 -21.607362 10.250913 0.000000 0.000000 0.000000 0.000000 0.000000 0.000000 1.968882 0.098176 -14.560038 -1.548801 -1.554302 0.055640 1.818027 -13.548571 1.295447 0.000000 0.000000 0.000000 -3.024328 -11.718104 -16.523361 -0.425000 16.263793 1.978407 0.491140 20.687668 -16.958551 0.000000 0.000000 0.000000
30.805978 71.514141 368.220569 -0.336659 1.443327 14.990538 -0.478363 0.919030 -14.992625 0.012578 0.775407 -0.023342 0.335794 -1.945831 0.392572 0.000000 0.000000 0.000000 1.026324 -2.982042 0.060825 -3.276784 -2.522974 1.064312 8.879153 9.628111 -2.382663 -0.140843 -11.326909 -0.033901 0.000000 0.000000 0.000000 0.000000 0.000000 0.000000 19.580143 3.127717 -2.089686 -23.227205 27.254549 3.411112 -24.098936 36.009830 -9.373690 10.560627 -19.721942 13.769648 0.000000 0.000000 0.000000 0.000000 0.000000 0.000000 1.757887 -0.065421 -15.008904 -1.377710 -1.835227 0.024297 0.632394 -7.225477 2.264158 0.000000 0.000000 0.000000 -3.844871 -13.702345 -17.381055 -0.291122 19.281073 2.258051 0.926183 20.907886 -18.368044 0.000000 0.000000 0.000000
30.815862 71.898699 368.080626 -0.315351 2.081666 15.157184 -0.526316 0.846670 -15.155029 -0.011250 0.847884 -0.022736 -0.161540 -2.493718 0.483459 0.000000 0.000000 0.000000 1.058897 -3.608493 0.059719 -3.771527 -2.296101 1.165537 8.733369 11.196149 -2.431111 2.023933 -11.609356 -0.523076 0.000000 0.000000 0.000000 0.000000 0.000000 0.000000 25.113041 7.092263 -3.197371 -37.924312 34.926373 6.989030 -29.133917 30.250555 -15.438292 12.773908 -17.102648 16.580950 0.000000 0.000000 0.000000 0.000000 0.000000 0.000000 1.248444 -0.641283 -15.137594 -0.408328 -2.417676 -0.050600 -1.872783 1.382235 4.602520 0.000000 0.000000 0.000000 -4.553422 -15.409571 -17.846260 -0.137017 21.522115 2.437704 1.097803 24.956406 -21.494827 0.000000 0.000000 0.000000
30.848855 72.299121 367.910618 -0.290323 2.733410 15.205423 -0.512278 0.637761 -15.196816 -0.010766 0.928188 -0.015803 -0.813492 -2.538705 0.648959 0.000000 0.000000 0.000000 0.965118 -4.142318 0.044805 -4.398288 -2.332650 1.319922 8.171868 13.072062 -2.431637 4.893631 -13.663396 -0.517201 0.000000 0.000000 0.000000 0.000000 0.000000 0.000000 28.760584 10.236916 -4.188881 -59.084367 46.181180 16.658607 -29.541027 16.505613 -28.190175 9.087589 -7.093611 20.311853 0.000000 0.000000 0.000000 0.000000 0.000000 0.000000 0.601939 -1.389909 -15.161123 0.137750 -2.505017 -0.103375 -3.280750 7.589024 5.360083 0.000000 0.000000 0.000000 -4.924845 -16.360134 -18.028051 0.044910 22.372727 2.472081 -0.594392 22.395632 -19.225619 0.000000 0.000000 0.000000
30.898018 72.659868 367.664839 -0.283307 3.318445 15.126173 -0.421084 0.270071 -15.107026 0.028462 0.874278 -0.004647 -1.666780 -1.642090 0.957583 0.000000 0.000000 0.000000 -0.026836 -3.769235 -0.095119 -4.292738 -2.794874 1.479831 6.847193 14.809054 -2.181481 8.157395 -16.098335 -0.199290 0.000000 0.000000 0.000000 0.000000 0.000000 0.000000 30.633249 15.153032 -5.431509 -89.028352 51.333345 32.866780 -22.584076 1.660079 -39.879224 -6.069114 -0.266698 23.624435 0.000000 0.000000 0.000000 0.000000 0.000000 0.000000 -0.093407 -2.299468 -15.081125 0.620491 -2.263718 -0.144899 -0.934559 7.354447 -2.582887 0.000000 0.000000 0.000000 -4.633642 -16.049747 -17.803953 0.061010 20.982433 2.355978 -2.972944 11.385572 -11.158017 0.000000 0.000000 0.000000
30.953990 72.932052 367.370969 -0.298101 3.844363 14.735404 -0.337952 -0.032942 -14.704666 0.009230 0.861073 -0.000431 -1.948354 -0.550268 1.261552 0.000000 0.000000 0.000000 -0.376742 -3.769979 -0.150952 -4.799590 -2.918922 1.641016 5.813869 16.241807 -1.947300 10.158807 -20.536953 0.901497 0.000000 0.000000 0.000000 0.000000 0.000000 0.000000 31.518570 19.776223 -6.465090 -113.335346 50.225645 44.876612 -21.402585 -7.239351 -52.868498 -23.857324 -7.699601 18.199291 0.000000 0.000000 0.000000 0.000000 0.000000 0.000000 -0.690322 -3.793680 -14.748262 0.830505 -1.341584 -0.144515 -1.331621 4.892574 0.133676 0.000000 0.000000 0.000000 -4.603917 -16.584370 -17.449899 -0.012236 20.815542 2.377588 -3.204512 -2.038239 -2.634459 0.000000 0.000000 0.000000
30.981240 73.135703 367.085860 -0.392498 4.255542 13.999031 -0.282017 -0.284223 -13.958858 -0.088561 0.840789 -0.010228 -1.463707 0.760596 1.529350 0.000000 0.000000 0.000000 -0.494767 -3.966474 -0.167640 -5.328253 -2.950722 1.821532 4.941306 18.294152 -1.734375 12.176026 -22.318557 1.333727 0.000000 0.000000 0.000000 0.000000 0.000000 0.000000 31.214121 21.840226 -6.673225 -133.429263 47.152445 56.680282 -22.634677 -12.986119 -68.281440 -35.666206 -18.286187 3.653904 0.000000 0.000000 0.000000 0.000000 0.000000 0.000000 -0.649409 -4.224031 -14.008398 0.797548 -1.381668 -0.148599 -0.897202 3.801234 -0.798352 0.000000 0.000000 0.000000 -4.359581 -17.061287 -16.719987 -0.138353 20.456518 2.396706 -4.332547 2.998062 -4.866689 0.000000 0.000000 0.000000
30.963028 73.182470 366.806038 -0.524483 4.540263 13.459278 -0.320505 -0.506523 -13.418270 -0.199966 0.720632 -0.030187 -0.906849 2.427978 1.860424 0.000000 0.000000 0.000000 -0.345650 -3.874464 -0.148194 -5.953168 -2.965161 1.984413 4.615232 19.447321 -1.623806 13.461388 -22.940501 1.516733 0.000000 0.000000 0.000000 0.000000 0.000000 0.000000 32.908105 26.569410 -8.031613 -144.956185 41.057141 52.865973 -29.467095 -8.756130 -87.782200 -27.185492 -23.529349 3.140624 0.000000 0.000000 0.000000 0.000000 0.000000 0.000000 -1.191074 -5.355779 -13.518862 1.186324 -0.446794 -0.162522 0.745809 -1.470925 -4.958419 0.000000 0.000000 0.000000 -3.927021 -17.437176 -16.228693 -0.557200 20.063782 2.536289 -4.342737 4.424531 -5.336907 0.000000 0.000000 0.000000
30.962261 73.065672 366.539414 -0.546592 4.746906 13.140198 -0.312550 -0.432183 -13.094873 -0.223349 0.714984 -0.034194 -0.298088 3.466198 2.038378 0.000000 0.000000 0.000000 -0.372234 -4.171872 -0.158802 -6.372952 -2.694791 2.093633 4.282777 20.178052 -1.475554 15.338441 -21.300307 1.096137 0.000000 0.000000 0.000000 0.000000 0.000000 0.000000 34.804510 31.656223 -9.656199 -154.402006 39.980138 51.250654 -44.797334 -6.854582 -126.311853 -15.992145 -22.251864 12.678650 0.000000 0.000000 0.000000 0.000000 0.000000 0.000000 -1.229373 -6.004876 -13.233949 1.038338 -0.004928 -0.139775 0.527166 -2.303871 -3.050464 0.000000 0.000000 0.000000 -3.834722 -17.605394 -15.893652 -0.559900 19.652292 2.509615 -3.449514 6.788225 -7.060832 0.000000 0.000000 0.000000
30.955031 72.733484 366.311372 -0.490969 4.854607 12.792747 -0.261139 -0.178032 -12.740972 -0.138543 0.757418 -0.021171 0.213448 4.152653 2.117723 0.000000 0.000000 0.000000 -0.653183 -4.291418 -0.217096 -6.431192 -2.543215 2.105666 4.811120 19.824321 -1.569478 13.770507 -17.778309 0.107819 0.000000 0.000000 0.000000 0.000000 0.000000 0.000000 37.915823 38.637068 -12.529938 -154.147162 44.962726 45.106771 -50.212668 -2.754303 -140.105422 -12.292507 -19.945385 13.848822 0.000000 0.000000 0.000000 0.000000 0.000000 0.000000 -1.190046 -6.344174 -12.908117 0.967471 0.310176 -0.109344 2.047222 -7.414472 -9.143603 0.000000 0.000000 0.000000 -3.699060 -17.530967 -15.506345 -0.569937 19.181340 2.485439 -3.818389 9.215197 -8.110526 0.000000 0.000000 0.000000
